<?xml version="1.0" encoding="UTF-8" standalone="no"?>
<!-- Created with Inkscape (http://www.inkscape.org/) -->

<svg
   width="80mm"
   height="80mm"
   viewBox="0 0 80 80"
   version="1.1"
   id="svg1"
   xml:space="preserve"
   xmlns="http://www.w3.org/2000/svg"
   xmlns:svg="http://www.w3.org/2000/svg"><defs
     id="defs1" /><g
     id="layer1"><g
       id="g1"><path
         style="fill-opacity:1.0;fill:#6e6e6e"
         d="M 37.880156,79.926782 C 31.332884,79.597974 24.519886,77.445246 18.914822,73.934238 8.7820113,67.587051 2.1831267,57.416771 0.42021216,45.430122 0.03592565,42.817229 0.01359712,37.619062 0.37493371,34.889122 1.157941,28.97341 3.3245874,23.12832 6.5732883,18.167455 12.91878,8.4776949 23.151465,1.9795817 34.493489,0.43715001 c 2.146146,-0.29186003 3.299593,-0.3675678 5.588,-0.36677444 4.59037,0.0015914 8.54144,0.64368398 12.784667,2.07765003 5.836486,1.9723958 10.970546,5.1590112 15.373656,9.5421424 2.043804,2.034531 3.582826,3.901673 5.143681,6.240316 8.782665,13.159146 8.8701,30.555996 0.220254,43.82361 -0.863894,1.325089 -1.914681,2.768823 -1.984028,2.725964 -0.03423,-0.02116 -0.08699,-0.220298 -0.117231,-0.442535 -0.08016,-0.589026 -0.543221,-1.666903 -1.023238,-2.381808 -0.230097,-0.342691 -0.720681,-0.901261 -1.090187,-1.241268 -0.421705,-0.388038 -0.654682,-0.662878 -0.625773,-0.738216 0.02533,-0.06601 0.306939,-0.275475 0.625795,-0.465473 0.696855,-0.415238 1.368135,-1.07224 1.678869,-1.643161 0.656321,-1.205878 0.827417,-4.606106 0.329563,-6.549475 -0.178351,-0.696189 -0.726231,-1.842593 -1.14684,-2.399684 -1.18015,-1.563098 -2.693053,-2.504847 -4.990406,-3.106417 l -0.879448,-0.230287 -6.179217,-0.08338 c -3.398569,-0.04586 -6.796383,-0.05615 -7.550699,-0.02288 l -1.371482,0.0605 -0.05546,0.520409 c -0.07545,0.707986 -0.01587,4.510873 0.07205,4.598657 0.03879,0.03873 3.067739,0.08318 6.731,0.09878 l 6.660475,0.02836 0.508,0.266489 c 0.628515,0.32971 1.385079,1.068555 1.642639,1.604168 0.384574,0.799749 0.302006,1.859402 -0.213414,2.738901 -0.276831,0.472375 -1.011026,1.15345 -1.523191,1.412983 l -0.418633,0.212137 -4.908367,0.03041 c -3.76963,0.02335 -4.952564,0.05539 -5.098868,0.138114 -0.189864,0.107348 -0.190497,0.114975 -0.189568,2.284895 0.001,2.361326 0.03519,2.775442 0.2354,2.852271 0.07214,0.02768 2.15351,0.08515 4.625254,0.127706 4.846604,0.08344 4.889325,0.08762 5.846366,0.572265 0.562928,0.285067 1.400178,1.140288 1.68068,1.716756 0.472009,0.970039 0.613218,2.436329 0.324089,3.3653 -0.317528,1.02022 -1.122974,1.939523 -2.186853,2.495986 l -0.577534,0.302081 -6.533454,0.02908 c -3.5934,0.01599 -6.5652,0.06081 -6.604,0.09959 -0.0844,0.08436 -0.09618,5.011951 -0.01219,5.096018 0.0321,0.03213 1.898999,0.07954 4.148667,0.105361 l 4.090306,0.04695 -0.719667,0.331339 c -4.7452,2.184719 -9.615539,3.353481 -15.079117,3.61862 -1.879246,0.0912 -1.973373,0.09113 -3.843883,-0.0028 z M 35.58848,61.071491 c 1.320593,-1.735654 3.714193,-4.76173 3.765886,-4.76097 0.05898,8.67e-4 1.547151,2.263519 2.783834,4.232602 l 0.877385,1.397 0.818952,0.05356 c 1.104968,0.07226 3.05912,0.08341 3.300241,0.01883 0.107408,-0.02877 0.178591,-0.09582 0.158183,-0.148998 -0.02041,-0.05318 -0.911397,-1.448349 -1.979978,-3.100373 -2.300332,-3.556309 -3.411161,-5.366442 -3.411161,-5.5586 0,-0.16771 1.324598,-1.94366 3.821037,-5.123043 2.036904,-2.594134 2.155238,-2.756911 2.067876,-2.844512 -0.03338,-0.03347 -0.908302,-0.07294 -1.944269,-0.0877 l -1.883578,-0.02685 -0.495302,0.661846 c -0.731214,0.977083 -3.333079,4.259699 -3.625746,4.574384 -0.139067,0.14953 -0.280558,0.254747 -0.314424,0.233817 -0.06111,-0.03777 -2.598031,-4.775805 -2.800316,-5.229964 l -0.105536,-0.236942 -2.051971,0.02528 c -1.128584,0.0139 -2.076733,0.05011 -2.106997,0.08046 -0.06088,0.06105 0.175368,0.447692 2.087347,3.416152 1.375675,2.135816 2.258454,3.540219 2.647681,4.212166 l 0.232955,0.402167 -0.227496,0.388192 c -0.2049,0.349637 -2.758202,3.659877 -5.414876,7.020142 l -1.00408,1.27 0.246014,0.05348 c 0.135308,0.02942 1.046114,0.05763 2.024014,0.0627 l 1.778001,0.0092 z M 20.704779,50.890499 c 3.513802,-0.268058 5.6284,-1.600994 6.545551,-4.125987 0.341304,-0.939639 0.410147,-1.652236 0.554246,-5.737057 0.122704,-3.478336 0.241562,-6.226075 0.340602,-7.874 0.192368,-3.200777 0.382856,-6.299322 0.424825,-6.910338 0.04139,-0.602653 0.028,-0.738158 -0.07693,-0.778426 -0.18045,-0.06924 -2.531374,-0.454438 -3.736246,-0.612175 -1.439812,-0.188495 -4.242388,-0.253607 -5.625436,-0.130697 -1.920134,0.170641 -3.086967,0.484825 -4.529763,1.219693 -2.370216,1.207237 -3.961569,3.090866 -4.7696005,5.64561 -0.3770484,1.19211 -0.4801165,1.924254 -0.4767607,3.386667 0.00536,2.33562 0.4404817,3.82592 1.5396622,5.273368 1.764598,2.323698 5.500344,3.236695 8.737957,2.135512 0.989333,-0.336494 1.667136,-0.769005 2.55444,-1.630006 0.449738,-0.436407 0.840554,-0.756499 0.868479,-0.711314 0.05799,0.09383 -0.07975,2.258282 -0.208229,3.272106 -0.124456,0.982061 -0.369646,1.727006 -0.761629,2.314006 -0.51898,0.777178 -1.207205,1.248504 -2.32807,1.594361 -0.424238,0.130904 -0.786903,0.154901 -2.282384,0.151026 -1.959088,-0.0051 -2.270133,-0.05115 -4.85153,-0.718702 -0.712541,-0.184263 -1.350716,-0.335024 -1.418166,-0.335024 -0.09965,0 -0.122071,0.170576 -0.119617,0.910167 0.0044,1.329362 0.129337,2.560477 0.274557,2.705696 0.213604,0.213604 3.281112,0.756118 5.564423,0.984115 0.666652,0.06657 2.737542,0.0509 3.779624,-0.0286 z m -3.694957,-11.75837 c -1.38018,-0.446222 -2.147933,-1.211633 -2.595883,-2.587959 -0.193893,-0.595738 -0.22206,-0.825046 -0.224096,-1.824381 -0.0016,-0.779829 0.04031,-1.30441 0.131865,-1.651 0.694176,-2.627866 2.224074,-4.131609 4.742438,-4.661363 0.960685,-0.202087 2.990547,-0.155218 4.232176,0.09772 l 0.232833,0.04743 v 0.989551 c 0,1.138306 -0.133602,3.382964 -0.260302,4.373328 -0.129537,1.012554 -0.464787,2.190997 -0.810427,2.848752 -0.456214,0.868175 -1.261941,1.696227 -2.005159,2.060714 -0.333911,0.163757 -0.812337,0.335793 -1.063168,0.382303 -0.712478,0.132112 -1.850423,0.09621 -2.380277,-0.07509 z m 56.170924,5.650555 c 1.084445,-0.365323 2.251576,-1.356835 2.742928,-2.330198 0.515477,-1.021155 0.67068,-2.385539 0.392745,-3.452603 -0.403912,-1.550725 -1.687162,-2.897421 -3.211413,-3.370192 -0.848886,-0.263295 -2.15302,-0.259541 -2.94064,0.0085 -1.469212,0.499932 -2.578012,1.621308 -3.08291,3.117877 -0.914146,2.709622 0.912233,5.748133 3.734034,6.212236 0.616671,0.101424 1.785527,0.0097 2.365256,-0.185584 z m -2.576923,-0.564505 c -2.017132,-0.527245 -3.376649,-2.57202 -3.054463,-4.594053 0.264513,-1.660082 1.659142,-3.131092 3.289881,-3.470062 0.638604,-0.132743 1.634512,-0.05646 2.238946,0.171495 1.040885,0.392557 2.042776,1.393694 2.441035,2.439199 0.281471,0.738917 0.321055,1.868988 0.09189,2.623454 -0.655813,2.159121 -2.843514,3.395543 -5.007292,2.829967 z m -0.690149,-2.376678 c 0.08505,-0.0539 0.12605,-0.431593 0.160693,-1.48037 l 0.04651,-1.408009 0.26264,-0.0012 c 0.455469,-0.002 0.643641,-0.08761 0.643641,-0.292809 0,-0.172235 -0.0522,-0.194479 -0.571501,-0.243523 -0.860781,-0.0813 -1.790056,-0.06601 -1.974066,0.03247 -0.36168,0.193565 -0.08494,0.505021 0.448734,0.505021 0.46759,0 0.488166,0.06673 0.488166,1.583267 0,1.37512 6.83e-4,1.380062 0.1905,1.37877 0.104775,-7.13e-4 0.241883,-0.03386 0.304684,-0.07366 z m 2.100922,0.0097 c 0.0594,-0.03779 0.122782,-0.457923 0.159812,-1.059237 0.08682,-1.409937 0.13972,-1.3943 0.510105,0.150794 0.177133,0.738927 0.317751,0.973666 0.583265,0.973666 0.267322,0 0.282725,-0.03094 0.558905,-1.122508 0.317388,-1.254443 0.417807,-1.32703 0.417807,-0.302008 0,1.223238 0.09797,1.511566 0.465667,1.370467 0.106999,-0.04106 0.127,-0.31398 0.127,-1.733009 v -1.684275 h -0.493459 -0.493459 l -0.10227,0.4445 c -0.22643,0.984138 -0.447044,1.609135 -0.536443,1.519736 -0.04858,-0.04858 -0.197561,-0.477414 -0.33106,-0.952954 -0.133498,-0.475541 -0.289282,-0.920719 -0.346187,-0.989285 -0.07334,-0.08837 -0.210419,-0.112609 -0.470808,-0.08326 -0.20204,0.02277 -0.389616,0.06367 -0.416835,0.09089 -0.02722,0.02722 -0.06882,0.754727 -0.09244,1.616684 -0.03263,1.190656 -0.01724,1.598168 0.06404,1.696107 0.116694,0.140608 0.243448,0.160975 0.396359,0.06369 z m -27.938733,1.075335 c 3.097265,-0.423486 5.351298,-2.494888 6.445886,-5.923614 0.361502,-1.132382 0.524123,-2.357161 0.523803,-3.94503 -4.35e-4,-2.161905 -0.332513,-3.532094 -1.196156,-4.935466 -1.089622,-1.770577 -2.52529,-2.759351 -4.709014,-3.243194 -1.220435,-0.27041 -4.063884,-0.271077 -5.708554,-0.0013 -1.699205,0.278681 -1.594362,0.303811 -1.592219,-0.381636 9.83e-4,-0.314325 0.05779,-1.2954 0.126246,-2.180166 0.06845,-0.884767 0.149575,-1.980142 0.180273,-2.434167 l 0.05582,-0.8255 h -2.502492 -2.502493 l -0.04877,0.783166 c -0.02683,0.430742 -0.08873,2.135717 -0.137568,3.788834 -0.167273,5.662188 -0.367248,10.113924 -0.68269,15.197667 -0.09535,1.5367 -0.161456,3.00355 -0.146901,3.259667 l 0.02646,0.465666 h 2.286 2.286 l 0.04906,-1.248501 c 0.02698,-0.686675 0.06944,-1.268889 0.09436,-1.293809 0.02492,-0.02492 0.104985,0.04577 0.177923,0.157088 0.70051,1.069114 2.043206,2.10906 3.24799,2.515637 0.944011,0.318574 2.459176,0.418051 3.72704,0.244697 z m -3.229366,-3.558772 c -1.171511,-0.172721 -2.440656,-1.066043 -2.923949,-2.058099 -0.518033,-1.063365 -0.551335,-1.365921 -0.541342,-4.918241 0.006,-2.122934 0.04071,-3.295083 0.102117,-3.445902 0.09775,-0.240074 0.2154,-0.287218 1.368629,-0.548424 0.868085,-0.196622 3.135193,-0.243659 3.833038,-0.07953 1.59335,0.374754 2.735768,1.495938 3.226673,3.166699 0.289961,0.986862 0.25508,2.940313 -0.07516,4.209154 -0.654464,2.514579 -2.690019,4.013439 -4.990007,3.67434 z m 18.101714,0.283827 c 0.05762,-3.036762 0.162342,-5.151152 0.313455,-6.328833 0.382173,-2.978405 2.045085,-4.709211 4.52649,-4.7113 0.4191,-3.53e-4 0.93345,0.03944 1.143,0.08843 0.20955,0.04899 0.472562,0.09 0.584471,0.09114 l 0.203471,0.0021 -0.05946,-1.745863 c -0.0327,-0.960224 -0.08111,-1.854094 -0.107563,-1.986376 -0.07126,-0.35632 -0.437184,-0.445194 -1.626333,-0.394998 -1.814114,0.07658 -2.889597,0.617216 -4.178354,2.100431 l -0.400101,0.460472 -0.0021,-1.0795 -0.0021,-1.0795 h -2.317271 -2.317271 l -0.05618,2.434167 c -0.09046,3.919421 -0.212966,7.010019 -0.435125,10.977421 -0.114484,2.044489 -0.208152,3.806614 -0.208152,3.915833 v 0.19858 h 2.441615 2.441614 z m -0.557555,36.237752 c 0.430742,-0.01537 1.135592,-0.01537 1.566334,0 0.430741,0.01537 0.07832,0.02794 -0.783167,0.02794 -0.861483,0 -1.213909,-0.01257 -0.783167,-0.02794 z m 7.032625,-0.07942 c 0.06112,-0.02446 0.134144,-0.02145 0.162278,0.0067 0.02813,0.02813 -0.02187,0.04815 -0.111125,0.04447 -0.09863,-0.0041 -0.118694,-0.02412 -0.05115,-0.05115 z m 3.995209,-2.016497 c 0.157969,-0.162983 0.306267,-0.296333 0.329551,-0.296333 0.02328,0 -0.08692,0.13335 -0.244885,0.296333 -0.157969,0.162984 -0.306267,0.296334 -0.32955,0.296334 -0.02328,0 0.08691,-0.13335 0.244884,-0.296334 z m 2.299368,-7.493 c 0,-0.116417 0.01922,-0.164042 0.0427,-0.105833 0.02349,0.05821 0.02349,0.153458 0,0.211666 -0.02349,0.05821 -0.0427,0.01058 -0.0427,-0.105833 z"
         id="path2" /></g></g></svg>
